<svg xmlns="http://www.w3.org/2000/svg" viewBox="0 0 1200 720" role="img" aria-label="Research review DragonBoat command deck preview">
  <rect width="1200" height="720" fill="#eef4ef"/>
  <path d="M0 90h1200M0 180h1200M0 270h1200M0 360h1200M0 450h1200M0 540h1200M0 630h1200M100 0v720M200 0v720M300 0v720M400 0v720M500 0v720M600 0v720M700 0v720M800 0v720M900 0v720M1000 0v720M1100 0v720" stroke="#d9e4dd" stroke-width="1"/>
  <text x="54" y="76" font-family="Arial, sans-serif" font-weight="800" font-size="24" fill="#cf442f">DRAGONBOAT</text>
  <text x="54" y="124" font-family="Arial, sans-serif" font-weight="800" font-size="44" fill="#111d20">Research Review</text>
  <rect x="54" y="166" width="516" height="492" rx="18" fill="#fffdf7" stroke="#a9bbb2"/>
  <text x="88" y="216" font-family="Arial, sans-serif" font-weight="800" font-size="26" fill="#132023">Agent Team</text>
  <rect x="210" y="260" width="220" height="78" rx="14" fill="#10221f"/>
  <text x="235" y="305" font-family="Arial, sans-serif" font-weight="800" font-size="23" fill="#fffaf1">Codex Steerer</text>
  <rect x="88" y="420" width="170" height="76" rx="14" fill="#f9faf4" stroke="#cfd8d2"/>
  <text x="110" y="456" font-family="Arial, sans-serif" font-weight="700" font-size="18" fill="#132023">Architecture</text>
  <text x="110" y="480" font-family="Arial, sans-serif" font-size="14" fill="#68736f">module map</text>
  <rect x="286" y="420" width="170" height="76" rx="14" fill="#f9faf4" stroke="#cfd8d2"/>
  <text x="308" y="456" font-family="Arial, sans-serif" font-weight="700" font-size="18" fill="#132023">Product</text>
  <text x="308" y="480" font-family="Arial, sans-serif" font-size="14" fill="#68736f">user value</text>
  <rect x="384" y="542" width="150" height="76" rx="14" fill="#f9faf4" stroke="#cfd8d2"/>
  <text x="408" y="578" font-family="Arial, sans-serif" font-weight="700" font-size="18" fill="#132023">Risk</text>
  <text x="408" y="602" font-family="Arial, sans-serif" font-size="14" fill="#68736f">refuter</text>
  <path d="M320 338 C270 370 220 390 173 420M320 338 C342 372 360 390 371 420M371 496 C398 518 420 530 459 542M173 496 C238 548 320 568 384 580" fill="none" stroke="#0f7a70" stroke-width="4"/>
  <path d="M173 458 C235 440 290 440 371 458M371 458 C405 485 430 510 459 542" fill="none" stroke="#6a7774" stroke-width="3" stroke-dasharray="10 9"/>
  <rect x="620" y="166" width="526" height="224" rx="18" fill="#fffdf7" stroke="#a9bbb2"/>
  <text x="654" y="216" font-family="Arial, sans-serif" font-weight="800" font-size="26" fill="#132023">Claim Ledger</text>
  <rect x="654" y="250" width="438" height="38" rx="10" fill="#e9f6f3"/>
  <text x="674" y="275" font-family="Arial, sans-serif" font-size="16" fill="#0e514b">claim_value: supported by product reviewer</text>
  <rect x="654" y="304" width="438" height="38" rx="10" fill="#fff4e4"/>
  <text x="674" y="329" font-family="Arial, sans-serif" font-size="16" fill="#704313">claim_cost: needs human cost data</text>
  <rect x="654" y="358" width="438" height="38" rx="10" fill="#fdeeea"/>
  <text x="674" y="383" font-family="Arial, sans-serif" font-size="16" fill="#8a2f20">claim_scope: challenged by risk reviewer</text>
  <rect x="620" y="422" width="526" height="236" rx="18" fill="#fffdf7" stroke="#a9bbb2"/>
  <text x="654" y="472" font-family="Arial, sans-serif" font-weight="800" font-size="26" fill="#132023">Agents Group Chat</text>
  <circle cx="678" cy="520" r="22" fill="#7bd3ca"/>
  <rect x="716" y="498" width="340" height="46" rx="12" fill="#e9f6f3"/>
  <text x="736" y="527" font-family="Arial, sans-serif" font-size="16" fill="#0e514b">@Architecture user value is unclear</text>
  <circle cx="678" cy="584" r="22" fill="#f06b52"/>
  <rect x="716" y="562" width="356" height="46" rx="12" fill="#fdeeea"/>
  <text x="736" y="591" font-family="Arial, sans-serif" font-size="16" fill="#8a2f20">@Product unsupported claim, source?</text>
</svg>
